<?xml version="1.0" encoding="UTF-8" standalone="no"?>
<!-- Created with Inkscape (http://www.inkscape.org/) -->

<svg
   width="98.481277mm"
   height="28.00375mm"
   viewBox="0 0 98.481277 28.00375"
   version="1.1"
   id="svg1"
   xmlns:inkscape="http://www.inkscape.org/namespaces/inkscape"
   xmlns:sodipodi="http://sodipodi.sourceforge.net/DTD/sodipodi-0.dtd"
   xmlns="http://www.w3.org/2000/svg"
   xmlns:svg="http://www.w3.org/2000/svg">
  <sodipodi:namedview
     id="namedview1"
     pagecolor="#ffffff"
     bordercolor="#000000"
     borderopacity="0.25"
     inkscape:showpageshadow="2"
     inkscape:pageopacity="0.0"
     inkscape:pagecheckerboard="0"
     inkscape:deskcolor="#d1d1d1"
     inkscape:document-units="mm" />
  <defs
     id="defs1" />
  <g
     inkscape:label="Layer 1"
     inkscape:groupmode="layer"
     id="layer1"
     transform="translate(-36.62478,-132.34707)">
    <g
       id="text3"
       style="font-weight:800;font-size:35.2777px;line-height:0;font-family:'Funnel Display';-inkscape-font-specification:'Funnel Display, Ultra-Bold';letter-spacing:-3.32581px;word-spacing:-0.0079375px;fill:#2e8ac5;stroke:#b1b1b1;stroke-width:2.692;stroke-opacity:0"
       aria-label="haiven"
       inkscape:export-filename="haiven.svg"
       inkscape:export-xdpi="96"
       inkscape:export-ydpi="96">
      <path
         style="fill:#ffffff;fill-opacity:1"
         d="m 37.970779,158.65204 v -24.69439 h 5.409247 v 9.46618 h 0.117592 q 0.852545,-1.35231 2.234255,-2.02847 1.411107,-0.70555 3.380779,-0.70555 3.321983,0 5.262257,2.02847 1.940273,2.02847 1.940273,5.43864 v 10.49512 h -5.409247 v -9.43679 q 0,-1.82268 -0.970137,-2.76342 -0.940738,-0.94073 -2.792818,-0.94073 -1.852079,0 -2.822215,0.94073 -0.940739,0.94074 -0.940739,2.76342 v 9.43679 z"
         id="path6" />
      <path
         d="m 62.308569,158.97542 q -3.174993,0 -4.968276,-1.4993 -1.763885,-1.5287 -1.763885,-4.05694 0,-2.61643 1.85208,-4.02754 1.881477,-1.4405 5.35045,-1.4405 h 4.733092 v -0.64676 q 0,-2.41064 -3.057401,-2.41064 -2.704623,0 -3.292585,1.82268 h -5.350451 q 0.61736,-2.99861 2.792818,-4.52731 2.175458,-1.5287 5.82082,-1.5287 4.027537,0 6.144199,1.79329 2.116662,1.76388 2.116662,5.17406 v 5.73262 h 2.528235 v 5.29166 H 69.80508 v -2.93981 h -1.234719 q -0.911341,1.5875 -2.410643,2.44004 -1.499302,0.82315 -3.851149,0.82315 z m 0.823146,-4.05694 q 1.293516,0 2.263653,-0.44097 0.999535,-0.44097 1.558098,-1.20532 0.558564,-0.76435 0.558564,-1.70509 v -0.0882 h -4.497907 q -2.263652,0 -2.263652,1.67569 0,0.85254 0.61736,1.32291 0.646757,0.44097 1.763884,0.44097 z m 11.490834,3.73356 v -17.63885 h 5.409247 v 17.63885 z m 2.704623,-19.13815 q -1.205321,0 -2.057865,-0.85255 -0.852545,-0.85254 -0.852545,-2.05786 0,-1.20532 0.852545,-2.05787 0.852544,-0.85254 2.057865,-0.85254 1.205322,0 2.057866,0.85254 0.852545,0.85255 0.852545,2.05787 0,1.20532 -0.852545,2.05786 -0.852544,0.85255 -2.057866,0.85255 z"
         id="path7" />
      <path
         style="fill:#ffffff;fill-opacity:1"
         d="m 86.319153,158.65204 -7.584705,-17.63885 h 5.732626 l 4.586101,11.25946 h 0.117592 l 4.468509,-11.25946 h 5.615033 l -7.584705,17.63885 z m 19.545927,0.35278 q -2.91041,0 -5.05647,-1.11713 -2.146063,-1.14653 -3.321986,-3.20439 -1.146525,-2.08727 -1.146525,-4.90948 0,-2.82222 1.117127,-4.85069 1.146525,-2.05786 3.233784,-3.14559 2.11667,-1.11713 4.96828,-1.11713 2.82222,0 4.85068,1.08773 2.02847,1.05833 3.0868,3.0574 1.08773,1.99907 1.08773,4.79189 v 1.73449 h -13.14094 q 0.32338,1.70508 1.41111,2.58703 1.08773,0.85254 2.88101,0.85254 1.44051,0 2.23425,-0.44097 0.82315,-0.47037 1.17593,-1.4699 h 5.40924 q -0.55856,2.88101 -2.88101,4.5273 -2.32245,1.6169 -5.90901,1.6169 z m -4.23333,-11.20067 h 7.87869 q -0.26458,-1.46991 -1.23472,-2.17546 -0.94074,-0.73495 -2.58703,-0.73495 -1.6169,0 -2.64583,0.73495 -1.02893,0.73495 -1.41111,2.17546 z m 13.78391,10.84789 v -12.3472 h -2.64583 v -5.29165 h 5.40925 v 2.93981 h 1.23472 q 1.05833,-1.5287 2.58703,-2.38125 1.5581,-0.88194 3.96874,-0.88194 3.76295,0 5.76202,2.02847 2.02847,2.02847 2.02847,5.43864 v 10.49512 h -5.40925 v -9.43679 q 0,-1.82268 -0.97013,-2.76342 -0.94074,-0.94073 -2.79282,-0.94073 -1.85208,0 -2.82222,0.94073 -0.94073,0.94074 -0.94073,2.76342 v 9.43679 z"
         id="path8" />
    </g>
  </g>
</svg>
